<svg xmlns="http://www.w3.org/2000/svg" viewBox="0 0 1028 175" width="1028" height="175" role="img" aria-label="A Basel II scorecard end to end, validated on a later vintage rather than a random split."><style>.dgm-node { font: 12px var(--font-inter, ui-sans-serif, system-ui, sans-serif); fill: var(--dgm-ink, #1c1917); } .dgm-layer { font: 10px var(--font-geist-mono, ui-monospace, monospace); letter-spacing: 0.11em; fill: var(--dgm-faint, #a8a29e); } .dgm-edge { font: 9.5px var(--font-geist-mono, ui-monospace, monospace); fill: var(--dgm-faint, #78716c); }</style><defs><marker id="dgm-arrow-credit-risk-scorecard" viewBox="0 0 8 8" refX="7" refY="4" markerWidth="6" markerHeight="6" orient="auto-start-reverse"><path d="M 0 1 L 7 4 L 0 7 z" fill="var(--dgm-rule, #d6d3d1)"/></marker></defs><text x="20" y="32" class="dgm-layer">DATA</text><text x="192" y="32" class="dgm-layer">FEATURES</text><text x="369" y="32" class="dgm-layer">MODEL</text><text x="541" y="32" class="dgm-layer">SCORE</text><text x="718" y="32" class="dgm-layer">VALIDATE</text><text x="890" y="32" class="dgm-layer">SURFACE</text><path d="M 138 100.5 C 162.3 100.5, 167.7 100.5, 192 100.5" fill="none" stroke="var(--dgm-rule, #d6d3d1)" stroke-width="1" marker-end="url(#dgm-arrow-credit-risk-scorecard)"/><path d="M 315 100.5 C 339.3 100.5, 344.7 100.5, 369 100.5" fill="none" stroke="var(--dgm-rule, #d6d3d1)" stroke-width="1" marker-end="url(#dgm-arrow-credit-risk-scorecard)"/><path d="M 487 100.5 C 511.3 100.5, 516.7 100.5, 541 100.5" fill="none" stroke="var(--dgm-rule, #d6d3d1)" stroke-width="1" marker-end="url(#dgm-arrow-credit-risk-scorecard)"/><path d="M 664 100.5 C 688.3 100.5, 693.7 65.5, 718 65.5" fill="none" stroke="var(--dgm-rule, #d6d3d1)" stroke-width="1" marker-end="url(#dgm-arrow-credit-risk-scorecard)"/><path d="M 664 100.5 C 688.3 100.5, 693.7 128, 718 128" fill="none" stroke="var(--dgm-rule, #d6d3d1)" stroke-width="1" marker-end="url(#dgm-arrow-credit-risk-scorecard)"/><path d="M 836 65.5 C 860.3 65.5, 865.7 100.5, 890 100.5" fill="none" stroke="var(--dgm-rule, #d6d3d1)" stroke-width="1" marker-end="url(#dgm-arrow-credit-risk-scorecard)"/><path d="M 836 128 C 860.3 128, 865.7 100.5, 890 100.5" fill="none" stroke="var(--dgm-rule, #d6d3d1)" stroke-width="1" marker-end="url(#dgm-arrow-credit-risk-scorecard)"/><rect x="20" y="66" width="118" height="69" rx="3" fill="none" stroke="var(--dgm-rule, #d6d3d1)" stroke-width="1" stroke-dasharray="4 3"/><text x="79" y="89" text-anchor="middle" class="dgm-node">12,000</text><text x="79" y="104" text-anchor="middle" class="dgm-node">microfinance</text><text x="79" y="119" text-anchor="middle" class="dgm-node">loans</text><rect x="192" y="73.5" width="123" height="54" rx="3" fill="var(--dgm-bg, #ffffff)" stroke="var(--dgm-rule, #d6d3d1)" stroke-width="1"/><text x="253.5" y="96.5" text-anchor="middle" class="dgm-node">WoE binning, IV</text><text x="253.5" y="111.5" text-anchor="middle" class="dgm-node">screen</text><rect x="369" y="73.5" width="118" height="54" rx="3" fill="var(--dgm-bg, #ffffff)" stroke="var(--dgm-accent, #1d4ed8)" stroke-width="1"/><rect x="369" y="73.5" width="3" height="54" fill="var(--dgm-accent, #1d4ed8)"/><text x="428" y="96.5" text-anchor="middle" class="dgm-node">Logistic</text><text x="428" y="111.5" text-anchor="middle" class="dgm-node">regression</text><rect x="541" y="73.5" width="123" height="54" rx="3" fill="var(--dgm-bg, #ffffff)" stroke="var(--dgm-rule, #d6d3d1)" stroke-width="1"/><text x="602.5" y="96.5" text-anchor="middle" class="dgm-node">Basel II points</text><text x="602.5" y="111.5" text-anchor="middle" class="dgm-node">card</text><rect x="718" y="46" width="118" height="39" rx="3" fill="var(--dgm-bg, #ffffff)" stroke="var(--dgm-rule, #d6d3d1)" stroke-width="1"/><text x="777" y="69" text-anchor="middle" class="dgm-node">Gini, KS, PSI</text><rect x="718" y="101" width="118" height="54" rx="3" fill="var(--dgm-bg, #ffffff)" stroke="var(--dgm-rule, #d6d3d1)" stroke-width="1"/><text x="777" y="124" text-anchor="middle" class="dgm-node">Multi-scenario</text><text x="777" y="139" text-anchor="middle" class="dgm-node">stress</text><rect x="890" y="73.5" width="118" height="54" rx="3" fill="var(--dgm-surface, #f4f4f2)" stroke="var(--dgm-ink, #0c0a09)" stroke-width="1"/><text x="949" y="96.5" text-anchor="middle" class="dgm-node">Next.js</text><text x="949" y="111.5" text-anchor="middle" class="dgm-node">dashboard</text></svg>